<svg width="32" height="32" viewBox="0 0 32 32" fill="none" xmlns="http://www.w3.org/2000/svg">
<g clip-path="url(#clip0_361_1182)">
<path d="M26.6436 0C29.6116 4.11093e-05 32 2.42211 32 5.43164V26.5684C32 29.5779 29.6116 32 26.6436 32H5.35645C2.38836 32 0 29.5544 0 26.5684V5.43164C0 2.42211 2.38836 4.16753e-05 5.35645 0H26.6436ZM18.875 6.77246C18.7129 6.79608 18.5739 6.89026 18.5508 7.05469L16.8115 21.5381C16.626 22.9719 15.9305 23.0663 14.9336 23.1133C14.5162 23.1368 14.1679 23.1366 13.8896 23.1602C13.5884 23.1602 13.4722 23.2306 13.4258 23.5596L13.2871 24.6885V24.8057C13.2871 25.0642 13.4725 25.0878 13.6348 25.1113C13.9826 25.1584 14.1685 25.2061 15.4902 25.2061C17.7394 25.206 19.6173 24.4997 19.9883 21.4668L21.7744 7.05469C21.7744 6.91361 21.7043 6.81934 21.542 6.81934H21.4961L18.875 6.77246ZM12.1045 6.77246C11.919 6.79597 11.8953 6.86667 11.8721 7.03125L10.2266 20.9736L10.2031 21.0205C10.2031 21.1851 10.3426 21.2793 10.5049 21.2793H13.0781C13.2636 21.2793 13.4025 21.1616 13.4258 20.9971L15.0957 7.05469V7.00684C15.0956 6.866 15.0257 6.77246 14.8867 6.77246H12.1045Z" fill="currentColor"/>
</g>
<defs>
<clipPath id="clip0_361_1182">
<rect width="32" height="32" fill="white"/>
</clipPath>
</defs>
</svg>