<svg width="88" height="31" viewBox="0 0 88 31" fill="none" xmlns="http://www.w3.org/2000/svg">
<rect width="88" height="31" fill="#5D5D5D"/>
<rect x="-19.5" y="-19.5" width="127" height="172" rx="4.5" stroke="#8A38F5" stroke-dasharray="10 5"/>
<g clip-path="url(#clip0_1_7688)">
<path fill-rule="evenodd" clip-rule="evenodd" d="M43.332 23.633V24.908H38.522C38.574 24.426 38.7303 23.9703 38.991 23.541C39.251 23.1076 39.7653 22.5343 40.534 21.821C41.152 21.2456 41.531 20.8553 41.671 20.65C41.8603 20.3666 41.955 20.0866 41.955 19.81C41.955 19.504 41.8716 19.2696 41.705 19.107C41.5423 18.9403 41.3163 18.857 41.027 18.857C40.7403 18.857 40.5123 18.9436 40.343 19.117C40.1736 19.2896 40.076 19.5763 40.05 19.977L38.683 19.839C38.7643 19.0843 39.02 18.5423 39.45 18.213C39.8793 17.8843 40.4163 17.72 41.061 17.72C41.7676 17.72 42.3226 17.9106 42.726 18.292C43.13 18.672 43.332 19.1453 43.332 19.712C43.332 20.0346 43.2733 20.3423 43.156 20.635C43.042 20.925 42.8596 21.2293 42.609 21.548C42.4423 21.76 42.1426 22.0643 41.71 22.461C41.2773 22.8583 41.0023 23.122 40.885 23.252C40.7716 23.3826 40.679 23.5096 40.607 23.633H43.332ZM45.053 24.908V23.536H46.425V24.908H45.053ZM52.672 23.633V24.908H47.862C47.914 24.426 48.0703 23.9703 48.331 23.541C48.591 23.1076 49.1053 22.5343 49.874 21.821C50.492 21.2456 50.871 20.8553 51.011 20.65C51.2003 20.3666 51.295 20.0866 51.295 19.81C51.295 19.504 51.2116 19.2696 51.045 19.107C50.8823 18.9403 50.6563 18.857 50.367 18.857C50.0803 18.857 49.8523 18.9436 49.683 19.117C49.5136 19.2896 49.416 19.5763 49.39 19.977L48.023 19.839C48.1043 19.0843 48.36 18.5423 48.79 18.213C49.2193 17.8843 49.7563 17.72 50.401 17.72C51.1076 17.72 51.6626 17.9106 52.066 18.292C52.47 18.672 52.672 19.1453 52.672 19.712C52.672 20.0346 52.6133 20.3423 52.496 20.635C52.382 20.925 52.1996 21.2293 51.949 21.548C51.7823 21.76 51.4826 22.0643 51.05 22.461C50.6173 22.8583 50.3423 23.122 50.225 23.252C50.1116 23.3826 50.019 23.5096 49.947 23.633H52.672ZM63.765 24.908H62.192L61.567 23.282H58.706L58.116 24.908H56.582L59.37 17.75H60.898L63.765 24.908ZM61.103 22.076L60.117 19.419L59.15 22.076H61.103ZM71.486 24.908H69.913L69.288 23.282H66.427L65.837 24.908H64.303L67.091 17.75H68.619L71.486 24.908ZM68.824 22.076L67.838 19.419L66.871 22.076H68.824ZM79.208 24.908H77.635L77.01 23.282H74.15L73.56 24.908H72.026L74.814 17.75H76.342L79.208 24.908ZM76.546 22.076L75.56 19.419L74.593 22.076H76.546Z" fill="white"/>
<path fill-rule="evenodd" clip-rule="evenodd" d="M38.5 6.21404H40.6L41.356 10.214L42.46 6.21404H44.555L45.663 10.214L46.42 6.21404H48.51L46.933 13.373H44.765L43.51 8.86604L42.26 13.373H40.092L38.5 6.21404ZM54.332 10.448L56.27 11.034C56.14 11.5774 55.935 12.0314 55.655 12.396C55.375 12.7607 55.0267 13.0357 54.61 13.221C54.1967 13.4064 53.6693 13.499 53.028 13.499C52.25 13.499 51.6137 13.387 51.119 13.163C50.6277 12.935 50.203 12.536 49.845 11.966C49.487 11.3967 49.308 10.6677 49.308 9.77904C49.308 8.59371 49.622 7.68371 50.25 7.04904C50.8813 6.41104 51.7733 6.09204 52.926 6.09204C53.8273 6.09204 54.5353 6.27437 55.05 6.63904C55.5673 7.00371 55.9513 7.56371 56.202 8.31904L54.249 8.75304C54.1803 8.53504 54.1087 8.37571 54.034 8.27504C53.9107 8.10571 53.7593 7.97571 53.58 7.88504C53.4007 7.79371 53.2007 7.74804 52.98 7.74804C52.478 7.74804 52.0937 7.94971 51.827 8.35304C51.625 8.65304 51.524 9.12337 51.524 9.76404C51.524 10.5587 51.6447 11.104 51.886 11.4C52.1267 11.6934 52.465 11.84 52.901 11.84C53.3243 11.84 53.6433 11.721 53.858 11.483C54.076 11.245 54.234 10.9 54.332 10.448ZM62.249 12.191H59.729L59.382 13.373H57.122L59.812 6.21404H62.224L64.914 13.373H62.6L62.249 12.191ZM61.785 10.643L60.994 8.07004L60.208 10.643H61.785ZM69.541 10.78V9.29004H72.959V12.342C72.3043 12.7887 71.725 13.093 71.221 13.255C70.7197 13.415 70.124 13.495 69.434 13.495C68.584 13.495 67.8907 13.35 67.354 13.06C66.82 12.77 66.4047 12.3387 66.108 11.766C65.8147 11.1927 65.668 10.535 65.668 9.79304C65.668 9.01237 65.8293 8.33371 66.152 7.75704C66.4747 7.17771 66.9467 6.73837 67.568 6.43904C68.0533 6.20771 68.706 6.09204 69.526 6.09204C70.3173 6.09204 70.9083 6.16371 71.299 6.30704C71.6923 6.45037 72.0177 6.67337 72.275 6.97604C72.535 7.27604 72.7303 7.65704 72.861 8.11904L70.727 8.49904C70.6397 8.22904 70.49 8.02237 70.278 7.87904C70.07 7.73637 69.8033 7.66504 69.478 7.66504C68.9927 7.66504 68.605 7.83404 68.315 8.17204C68.0283 8.50737 67.885 9.03971 67.885 9.76904C67.885 10.5437 68.03 11.097 68.32 11.429C68.6133 11.761 69.02 11.927 69.54 11.927C69.788 11.927 70.0243 11.8914 70.249 11.82C70.4737 11.748 70.7307 11.626 71.02 11.454V10.78H69.541Z" fill="white"/>
<path fill-rule="evenodd" clip-rule="evenodd" d="M3.59009 10.9351H5.13709C5.30109 10.9351 5.43442 10.9724 5.53709 11.0471C5.64575 11.1224 5.71875 11.2208 5.75609 11.3421L7.13409 16.7351C7.21409 17.0164 7.28909 17.3424 7.35909 17.7131C7.39642 17.5298 7.43409 17.3564 7.47209 17.1931C7.50942 17.0238 7.55375 16.8688 7.60509 16.7281L9.23709 11.3421C9.27509 11.2348 9.34775 11.1414 9.45509 11.0621C9.56309 10.9774 9.69209 10.9351 9.84209 10.9351H10.3831C10.5478 10.9351 10.6791 10.9724 10.7771 11.0471C10.8804 11.1171 10.9531 11.2154 10.9951 11.3421L12.6261 16.7351C12.6728 16.8711 12.7151 17.0211 12.7531 17.1851C12.7951 17.3451 12.8351 17.5141 12.8731 17.6921C12.9058 17.5134 12.9384 17.3444 12.9711 17.1851C13.0084 17.0258 13.0458 16.8781 13.0831 16.7421L14.4621 11.3421C14.4948 11.2348 14.5648 11.1414 14.6721 11.0621C14.7854 10.9774 14.9168 10.9351 15.0661 10.9351H16.5151L13.7441 20.2721H12.0691L10.2191 14.0631C10.1918 13.9831 10.1638 13.8941 10.1351 13.7961C10.1118 13.6981 10.0884 13.5948 10.0651 13.4861C10.0418 13.5948 10.0161 13.6981 9.98809 13.7961C9.96009 13.8948 9.93409 13.9838 9.91009 14.0631L8.02709 20.2721H6.36109L3.59009 10.9351ZM20.5211 10.8291C20.9524 10.8291 21.3391 10.8924 21.6811 11.0191C22.0284 11.1458 22.3218 11.3191 22.5611 11.5391C22.7998 11.7551 22.9824 12.0108 23.1091 12.3061C23.2404 12.5968 23.3061 12.9084 23.3061 13.2411C23.3061 13.5364 23.2731 13.7964 23.2071 14.0211C23.1471 14.2464 23.0558 14.4431 22.9331 14.6111C22.8111 14.7804 22.6611 14.9238 22.4831 15.0411C22.3051 15.1584 22.1038 15.2544 21.8791 15.3291C22.9431 15.6898 23.4751 16.4094 23.4751 17.4881C23.4751 17.9614 23.3884 18.3784 23.2151 18.7391C23.0458 19.0958 22.8158 19.3958 22.5251 19.6391C22.2398 19.8831 21.9048 20.0661 21.5201 20.1881C21.1401 20.3094 20.7394 20.3701 20.3181 20.3701C19.8728 20.3701 19.4788 20.3188 19.1361 20.2161C18.7988 20.1128 18.5011 19.9581 18.2431 19.7521C17.9898 19.5408 17.7698 19.2808 17.5831 18.9721C17.3998 18.6621 17.2424 18.3031 17.1111 17.8951L17.8571 17.5791C18.0538 17.4991 18.2364 17.4804 18.4051 17.5231C18.5784 17.5604 18.7004 17.6518 18.7711 17.7971C18.8551 17.9571 18.9441 18.1071 19.0381 18.2471C19.1314 18.3831 19.2368 18.5051 19.3541 18.6131C19.4761 18.7158 19.6144 18.7978 19.7691 18.8591C19.9238 18.9198 20.1021 18.9501 20.3041 18.9501C20.5521 18.9501 20.7674 18.9101 20.9501 18.8301C21.1381 18.7461 21.2928 18.6384 21.4141 18.5071C21.5361 18.3711 21.6278 18.2188 21.6891 18.0501C21.7498 17.8814 21.7801 17.7128 21.7801 17.5441C21.7801 17.3281 21.7591 17.1314 21.7171 16.9541C21.6798 16.7754 21.5908 16.6228 21.4501 16.4961C21.3141 16.3694 21.1124 16.2711 20.8451 16.2011C20.5784 16.1304 20.2151 16.0951 19.7551 16.0951V14.8931C20.1398 14.8884 20.4538 14.8534 20.6971 14.7881C20.9458 14.7221 21.1404 14.6304 21.2811 14.5131C21.4211 14.3918 21.5171 14.2491 21.5691 14.0851C21.6211 13.9204 21.6471 13.7374 21.6471 13.5361C21.6471 13.1094 21.5391 12.7884 21.3231 12.5731C21.1124 12.3571 20.8148 12.2491 20.4301 12.2491C20.0881 12.2491 19.8021 12.3454 19.5721 12.5381C19.3428 12.7301 19.1834 12.9668 19.0941 13.2481C19.0194 13.4634 18.9188 13.6041 18.7921 13.6701C18.6701 13.7354 18.4941 13.7494 18.2641 13.7121L17.3721 13.5571C17.4374 13.1024 17.5614 12.7064 17.7441 12.3691C17.9268 12.0271 18.1568 11.7438 18.4341 11.5191C18.7101 11.2891 19.0238 11.1178 19.3751 11.0051C19.7318 10.8878 20.1141 10.8291 20.5221 10.8291M30.3591 18.0081C30.4578 18.0081 30.5421 18.0454 30.6121 18.1201L31.3511 18.9151C31.0131 19.3884 30.5888 19.7494 30.0781 19.9981C29.5714 20.2461 28.9691 20.3701 28.2711 20.3701C27.6378 20.3701 27.0681 20.2531 26.5621 20.0191C26.0561 19.7798 25.6251 19.4491 25.2691 19.0271C24.9171 18.6004 24.6451 18.0968 24.4531 17.5161C24.2658 16.9294 24.1721 16.2894 24.1721 15.5961C24.1721 14.8981 24.2728 14.2581 24.4741 13.6761C24.6808 13.0908 24.9691 12.5871 25.3391 12.1651C25.7091 11.7431 26.1521 11.4151 26.6681 11.1811C27.1834 10.9464 27.7504 10.8291 28.3691 10.8291C28.9978 10.8291 29.5534 10.9418 30.0361 11.1671C30.5188 11.3871 30.9221 11.6798 31.2461 12.0451L30.6261 12.9101C30.5841 12.9621 30.5351 13.0088 30.4791 13.0501C30.4271 13.0928 30.3521 13.1141 30.2541 13.1141C30.1561 13.1141 30.0598 13.0768 29.9651 13.0021C29.8764 12.9268 29.7641 12.8448 29.6281 12.7561C29.4968 12.6668 29.3301 12.5844 29.1281 12.5091C28.9268 12.4344 28.6691 12.3971 28.3551 12.3971C28.0131 12.3971 27.7014 12.4698 27.4201 12.6151C27.1388 12.7551 26.8974 12.9638 26.6961 13.2411C26.4948 13.5131 26.3378 13.8481 26.2251 14.2461C26.1171 14.6394 26.0631 15.0894 26.0631 15.5961C26.0631 16.1074 26.1241 16.5621 26.2461 16.9601C26.3681 17.3581 26.5321 17.6958 26.7381 17.9731C26.9494 18.2451 27.1954 18.4538 27.4761 18.5991C27.7574 18.7391 28.0598 18.8091 28.3831 18.8091C28.5758 18.8091 28.7491 18.7998 28.9031 18.7811C29.0584 18.7578 29.2018 18.7204 29.3331 18.6691C29.4691 18.6124 29.5958 18.5421 29.7131 18.4581C29.8298 18.3734 29.9464 18.2681 30.0631 18.1421C30.1104 18.1041 30.1578 18.0734 30.2051 18.0501C30.2564 18.0221 30.3078 18.0081 30.3591 18.0081Z" fill="white"/>
<rect x="1" y="1" width="86" height="29" rx="4" stroke="white" stroke-width="2"/>
<line x1="34.5" y1="31" x2="34.5" stroke="white"/>
</g>
<defs>
<clipPath id="clip0_1_7688">
<rect width="88" height="31" fill="white"/>
</clipPath>
</defs>
</svg>
